<svg width="10" height="16" viewBox="0 0 10 16" fill="none" xmlns="http://www.w3.org/2000/svg">
    <path
        d="M2.0123e-05 8.03651C-0.000930692 7.8855 0.0305844 7.73581 0.0927583 7.59601C0.154932 7.45622 0.246542 7.32907 0.362334 7.22185L7.85848 0.337441C8.09374 0.121381 8.41282 1.89269e-08 8.74553 1.49594e-08C9.07824 1.09919e-08 9.39732 0.121381 9.63257 0.337441C9.86783 0.553501 10 0.846542 10 1.1521C10 1.45765 9.86783 1.75069 9.63257 1.96675L3.01097 8.03651L9.62008 14.1063C9.82476 14.3258 9.93171 14.6081 9.91957 14.8969C9.90742 15.1857 9.77707 15.4596 9.55457 15.6639C9.33206 15.8683 9.03379 15.988 8.71936 15.9991C8.40493 16.0103 8.09749 15.9121 7.85849 15.7241L0.362334 8.83969C0.131522 8.62597 0.00140009 8.33752 2.0123e-05 8.03651Z"
        fill="#1F1A17" />
</svg>
